<svg width="24" height="24" viewBox="0 0 24 24" fill="none" xmlns="http://www.w3.org/2000/svg">
<rect width="24" height="24" rx="12" fill="#353131" fill-opacity="0.24"/>
<path fill-rule="evenodd" clip-rule="evenodd" d="M12 6C11.7239 6 11.5 6.22386 11.5 6.5V11.5H6.5C6.22386 11.5 6 11.7239 6 12C6 12.2762 6.22386 12.5 6.5 12.5H11.5V17.5C11.5 17.7761 11.7239 18 12 18C12.2762 18 12.5 17.7761 12.5 17.5V12.5H17.5C17.7761 12.5 18 12.2762 18 12C18 11.7239 17.7761 11.5 17.5 11.5H12.5V6.5C12.5 6.22386 12.2762 6 12 6Z" fill="#353131"/>
</svg>
